<?xml version="1.0" standalone="no"?>
<!DOCTYPE svg PUBLIC "-//W3C//DTD SVG 20010904//EN"
 "http://www.w3.org/TR/2001/REC-SVG-20010904/DTD/svg10.dtd">
<svg version="1.0" xmlns="http://www.w3.org/2000/svg"
 width="512.000000pt" height="512.000000pt" viewBox="0 0 512.000000 512.000000"
 preserveAspectRatio="xMidYMid meet">

<g transform="translate(0.000000,512.000000) scale(0.100000,-0.100000)"
fill="#ac3434" stroke="none">
<path d="M3077 4975 c-4 -16 -18 -95 -33 -175 -56 -313 -145 -492 -330 -670
-182 -175 -344 -248 -673 -306 -106 -18 -157 -31 -145 -36 11 -4 93 -21 184
-37 189 -35 263 -57 374 -112 260 -129 464 -371 545 -646 11 -38 34 -144 51
-238 17 -93 33 -171 34 -172 1 -2 15 70 31 159 35 207 56 281 109 394 108 228
279 402 500 509 106 52 189 75 381 110 77 14 151 28 165 31 17 5 -34 18 -154
40 -222 41 -291 62 -415 125 -250 127 -438 347 -525 614 -14 44 -39 157 -56
250 -37 204 -35 197 -43 160z"/>
<path d="M1847 3750 c-3 -8 -19 -93 -36 -187 -55 -303 -129 -460 -304 -640
-186 -191 -358 -272 -714 -334 -73 -12 -133 -25 -133 -29 0 -4 60 -17 133 -29
356 -62 528 -143 714 -334 177 -182 254 -349 308 -662 16 -88 31 -163 34 -167
4 -4 22 74 40 173 45 248 81 350 175 493 103 159 253 293 416 373 119 58 189
79 393 116 97 17 177 34 177 37 0 3 -80 20 -177 37 -204 37 -274 58 -393 116
-163 80 -313 214 -416 372 -94 144 -130 245 -174 490 -36 194 -36 195 -43 175z"/>
<path d="M3081 2536 c-4 -45 -66 -356 -82 -409 -81 -275 -285 -517 -545 -646
-111 -55 -185 -77 -374 -112 -91 -16 -173 -33 -184 -37 -12 -5 39 -18 145 -36
341 -60 518 -144 699 -333 179 -185 249 -337 309 -667 17 -93 32 -170 34 -172
2 -2 18 78 36 177 46 252 89 374 184 514 102 152 237 272 398 354 124 63 193
84 415 125 120 22 171 35 154 40 -14 3 -88 17 -165 31 -192 35 -275 58 -381
110 -258 125 -456 351 -549 628 -13 40 -38 152 -55 248 -30 168 -38 204 -39
185z"/>
</g>
</svg>
