<?xml version="1.0" encoding="utf-8"?>
<!-- Generator: Adobe Illustrator 27.7.0, SVG Export Plug-In . SVG Version: 6.00 Build 0)  -->
<svg version="1.1" id="Warstwa_1" xmlns="http://www.w3.org/2000/svg" xmlns:xlink="http://www.w3.org/1999/xlink" x="0px" y="0px"
	 viewBox="0 0 631.7 124.9" style="enable-background:new 0 0 631.7 124.9;" xml:space="preserve">
<style type="text/css">
	.st0{fill:url(#SVGID_1_);}
	.st1{fill:#FFFFFF;}
	.st2{fill:#FFFFFF;}
	.st3{fill:url(#SVGID_00000059299774393739906750000001638301952767334539_);}
	.st4{fill:url(#SVGID_00000068676682183766749910000003942483356960142487_);}
	.st5{fill:url(#SVGID_00000127730915107462864550000000043601970254712993_);}
	.st6{fill:url(#SVGID_00000130646998210316090090000015373626642644618626_);}
	.st7{fill:url(#SVGID_00000129197074988513581270000007620111035072383390_);}
	.st8{fill:url(#SVGID_00000088126997709304135140000013234130173968662176_);}
	.st9{fill:url(#SVGID_00000106108713971389369910000010329346151789025211_);}
	.st10{fill:url(#SVGID_00000143579297720002181900000012235900367650501777_);}
	.st11{fill:url(#SVGID_00000157271764874838752900000015218163366514618262_);}
</style>
<g>
	<g>
		<path class="st2" d="M132.5,112.9c0,3.8-2.8,6.1-7.3,6.1h-4.8v5.7h-1.9v-18h6.7C129.7,106.8,132.5,109.1,132.5,112.9z
			 M130.6,112.9c0-2.9-1.9-4.5-5.5-4.5h-4.8v9h4.8C128.7,117.4,130.6,115.8,130.6,112.9z"/>
		<path class="st2" d="M164.6,124.7l-4.1-5.8c-0.5,0.1-0.9,0.1-1.4,0.1h-4.8v5.7h-1.9v-18h6.7c4.6,0,7.3,2.3,7.3,6.2
			c0,2.8-1.5,4.8-4.1,5.6l4.4,6.2H164.6z M164.5,112.9c0-2.9-1.9-4.5-5.5-4.5h-4.8v9h4.8C162.6,117.4,164.5,115.8,164.5,112.9z"/>
		<path class="st2" d="M185,115.8c0-5.2,4-9.1,9.4-9.1c5.4,0,9.4,3.9,9.4,9.1c0,5.3-4,9.1-9.4,9.1C189,124.9,185,121,185,115.8z
			 M202,115.8c0-4.3-3.2-7.4-7.5-7.4c-4.3,0-7.6,3.2-7.6,7.4c0,4.3,3.2,7.4,7.6,7.4C198.8,123.2,202,120,202,115.8z"/>
		<path class="st2" d="M227.1,108.4h-6.3v-1.6h14.5v1.6H229v16.3h-1.9V108.4z"/>
		<path class="st2" d="M266.8,123.1v1.6h-12.7v-18h12.3v1.6H256v6.4h9.3v1.6H256v6.7H266.8z"/>
		<path class="st2" d="M285.4,115.8c0-5.3,4-9.1,9.4-9.1c2.6,0,5,0.9,6.6,2.6l-1.2,1.2c-1.5-1.5-3.3-2.1-5.3-2.1
			c-4.3,0-7.6,3.2-7.6,7.4c0,4.3,3.3,7.4,7.6,7.4c2.1,0,3.8-0.6,5.3-2.2l1.2,1.2c-1.6,1.7-3.9,2.6-6.6,2.6
			C289.4,124.9,285.4,121,285.4,115.8z"/>
		<path class="st2" d="M324.4,108.4h-6.3v-1.6h14.5v1.6h-6.3v16.3h-1.9V108.4z"/>
		<path class="st2" d="M372.7,106.8h1.6l-0.1,6.8h-1.4L372.7,106.8z"/>
		<path class="st2" d="M394.1,106.8v18h-1.6L381,110.2v14.6h-1.9v-18h1.6l11.6,14.6v-14.6H394.1z"/>
		<path class="st2" d="M438.1,106.8h7.3c5.7,0,9.6,3.7,9.6,9c0,5.3-3.9,9-9.6,9h-7.3V106.8z M445.4,123.1c4.8,0,7.8-3,7.8-7.3
			c0-4.3-3.1-7.3-7.8-7.3H440v14.7H445.4z"/>
		<path class="st2" d="M487.8,123.1v1.6h-12.7v-18h12.3v1.6H477v6.4h9.3v1.6H477v6.7H487.8z"/>
		<path class="st2" d="M506.3,122.6l0.7-1.5c1.3,1.3,3.6,2.2,5.9,2.2c3.4,0,4.8-1.4,4.8-3.2c0-4.9-11.1-1.9-11.1-8.5
			c0-2.6,2.1-4.9,6.6-4.9c2,0,4.1,0.6,5.6,1.6l-0.6,1.5c-1.5-1-3.3-1.5-4.9-1.5c-3.3,0-4.7,1.5-4.7,3.3c0,4.9,11.1,1.9,11.1,8.5
			c0,2.6-2.1,4.9-6.7,4.9C510.3,124.9,507.6,123.9,506.3,122.6z"/>
		<path class="st2" d="M539.5,106.8h1.9v18h-1.9V106.8z"/>
		<path class="st2" d="M575.7,115.8h1.8v6.8c-1.7,1.5-4.1,2.3-6.6,2.3c-5.5,0-9.5-3.9-9.5-9.1c0-5.3,4-9.1,9.5-9.1
			c2.7,0,5.1,0.9,6.7,2.6l-1.2,1.2c-1.5-1.5-3.3-2.1-5.4-2.1c-4.4,0-7.7,3.2-7.7,7.4c0,4.3,3.3,7.4,7.7,7.4c1.7,0,3.3-0.4,4.7-1.4
			V115.8z"/>
		<path class="st2" d="M613.6,106.8v18h-1.6l-11.5-14.6v14.6h-1.9v-18h1.6l11.6,14.6v-14.6H613.6z"/>
	</g>
	<path class="st2" d="M236.7,33.1c-14.8,0-26.8,12-26.8,26.8c0,14.8,12,26.8,26.8,26.8c14.8,0,26.8-12,26.8-26.8
		C263.4,45.1,251.4,33.1,236.7,33.1z M236.7,73.8c-7.7,0-14-6.3-14-14c0-7.7,6.3-14,14-14c7.7,0,14,6.3,14,14
		C250.7,67.6,244.4,73.8,236.7,73.8z"/>
	<path class="st2" d="M515.1,73.8c-7.7,0-14-6.3-14-14c0-7.7,6.3-14,14-14c2.8,0,5.5,0.8,7.8,2.4l7.5-10.4
		c-4.5-3.1-9.8-4.8-15.3-4.8c-14.8,0-26.8,12-26.8,26.8c0,14.8,12,26.8,26.8,26.8c5.3,0,10.4-1.5,14.8-4.5l-7.3-10.5
		C520.4,73.1,517.8,73.8,515.1,73.8z"/>
	<path class="st2" d="M325,85.8V0h-11.1v39.7l-0.8-0.7c-4.8-3.9-10.6-5.9-16.8-5.9c-14.8,0-26.8,12-26.8,26.8
		c0,14.8,12,26.8,26.8,26.8c6.2,0,12-2.1,16.8-5.9l0.8-0.7v5.7H325z M296.3,73.8c-7.7,0-14-6.3-14-14c0-7.7,6.3-14,14-14
		c7.7,0,14,6.3,14,14C310.3,67.6,304,73.8,296.3,73.8z"/>
	<path class="st2" d="M591.3,85.7V34.3h-11.1v5.3l-0.8-0.7c-4.8-3.9-10.6-5.9-16.8-5.9c-14.8,0-26.8,12-26.8,26.8
		c0,14.8,12,26.8,26.8,26.8c6.2,0,12-2.1,16.8-5.9l0.8-0.7v5.7H591.3z M562.6,73.8c-7.7,0-14-6.3-14-14c0-7.7,6.3-14,14-14
		c7.7,0,14,6.3,14,14C576.6,67.6,570.3,73.8,562.6,73.8z"/>
	<path class="st2" d="M177.5,45.5c6.8,0,12.3,5.5,12.3,12.3v27.9h11.1v-30l-0.1-0.3c-1.2-12-11.2-21-23.3-21
		c-6.7,0-13.1,2.9-17.5,7.9l-0.4,0.4l-0.4-0.4c-4.4-5-10.8-7.9-17.5-7.9c-4.1,0-8.1,1.1-11.6,3.1l-0.7,0.4v-3.5h-11.1v51.5h11.1v-28
		c0-6.8,5.5-12.3,12.3-12.3s12.3,5.5,12.3,12.3v27.9h11.1V57.4C165.4,50.7,170.8,45.5,177.5,45.5z"/>
	<path class="st2" d="M456.4,45.5c3.3,0,6.4,1.3,8.7,3.6s3.6,5.4,3.6,8.7v27.9h11.1V57.8c0-5.6-2-11-5.6-15.2l-0.3-0.4
		c-0.3-0.3-0.5-0.6-0.8-0.9c-0.6-0.6-1.2-1.2-1.8-1.6c-0.3-0.3-0.6-0.5-1-0.7c-0.7-0.5-1.4-1-2.1-1.4c-0.4-0.2-0.7-0.4-1-0.6
		c-0.4-0.2-0.9-0.5-1.3-0.6c-0.3-0.1-0.6-0.3-0.9-0.4c-0.7-0.3-1.5-0.6-2.4-0.8c-0.4-0.1-0.8-0.2-1.2-0.3l-1.2-0.2
		c-2.1-0.3-4.2-0.4-5.7-0.2c-0.3,0-0.5,0-0.8,0.1c-0.3,0-0.6,0.1-0.9,0.1c-0.8,0.1-1.6,0.3-2.3,0.5c-0.4,0.1-0.7,0.2-1.1,0.3
		c-0.4,0.1-0.8,0.2-1.1,0.4c-1.2,0.4-2.4,1-3.6,1.6l-0.8,0.4v-3.5H433v51.5h11.1v-28C444.1,51,449.6,45.5,456.4,45.5z"/>
	<path class="st2" d="M418.9,45.5c2,0,4,0.5,5.8,1.4V35.1c-0.1,0-0.1,0-0.2-0.1c-0.2,0-0.4-0.1-0.5-0.1l-1.2-0.2
		c-2.1-0.3-4.2-0.4-5.7-0.2c-0.3,0-0.5,0-0.8,0.1c-0.3,0-0.6,0.1-0.9,0.1c-0.8,0.1-1.6,0.3-2.3,0.5c-0.4,0.1-0.7,0.2-1.1,0.3
		c-0.4,0.1-0.8,0.2-1.1,0.4c-1.2,0.4-2.4,1-3.6,1.6l-0.8,0.4v-3.5h-11.1v51.4h11.1V57.8C406.5,51,412.1,45.5,418.9,45.5z"/>
	<path class="st2" d="M626,45.5c2,0,4,0.5,5.8,1.4V35.1c-0.1,0-0.1,0-0.2-0.1c-0.2,0-0.4-0.1-0.5-0.1l-1.2-0.2
		c-2.1-0.3-4.2-0.4-5.7-0.2c-0.3,0-0.5,0-0.8,0.1c-0.3,0-0.6,0.1-0.9,0.1c-0.8,0.1-1.6,0.3-2.3,0.5c-0.4,0.1-0.7,0.2-1.1,0.3
		c-0.4,0.1-0.8,0.2-1.1,0.4c-1.2,0.4-2.4,1-3.6,1.6l-0.8,0.4v-3.5h-11.1v51.5h11.1v-28C613.6,51,619.2,45.5,626,45.5z"/>
	<path class="st2" d="M385.3,53.9L385.3,53.9c-2.7-12.1-13.7-20.9-26.1-20.9c-14.8,0-26.8,12-26.8,26.8c0,14.8,12,26.8,26.8,26.8
		c7.9,0,15.2-3.4,20.3-9.4l-12.9-5.6c-2.2,1.4-4.8,2.2-7.5,2.2c-5.3,0-10.1-3-12.5-7.7l-0.4-0.7h39c0.4-1.8,0.6-3.7,0.6-5.5
		C386,57.9,385.7,55.9,385.3,53.9z M346.3,54.3l0.4-0.7c2.4-4.8,7.2-7.7,12.5-7.7c5.3,0,10.1,3,12.5,7.7l0.4,0.7H346.3z"/>
	<linearGradient id="SVGID_1_" gradientUnits="userSpaceOnUse" x1="-19.689" y1="93.6666" x2="100.7587" y2="93.6666">
		<stop  offset="0" style="stop-color:#F21D1D"/>
		<stop  offset="1" style="stop-color:#A63737"/>
	</linearGradient>
	<path class="st0" d="M85.6,95.1l8.1-1.5l-8.1-1.5c-11.1-2-19.7-10.7-21.7-21.7l-1.5-8L61,70.5c-2,11.1-10.7,19.7-21.7,21.7
		l-8.1,1.5l8.1,1.5c11.1,2,19.7,10.7,21.7,21.7l1.5,8l1.5-8.1C65.9,105.8,74.6,97.1,85.6,95.1z"/>
	
		<linearGradient id="SVGID_00000019650733235907512270000011346901230698557359_" gradientUnits="userSpaceOnUse" x1="-19.689" y1="31.2222" x2="100.7587" y2="31.2222">
		<stop  offset="0" style="stop-color:#F21D1D"/>
		<stop  offset="1" style="stop-color:#A63737"/>
	</linearGradient>
	<path style="fill:url(#SVGID_00000019650733235907512270000011346901230698557359_);" d="M85.6,32.7l8.1-1.5l-8.1-1.5
		C74.6,27.8,65.9,19.1,63.9,8l-1.5-8L61,8.1c-2,11.1-10.7,19.7-21.7,21.7l-8.1,1.5l8.1,1.5C50.3,34.7,59,43.3,61,54.4l1.5,8l1.5-8.1
		C65.9,43.3,74.6,34.7,85.6,32.7z"/>
	
		<linearGradient id="SVGID_00000107590694939730130180000002459888594147795118_" gradientUnits="userSpaceOnUse" x1="-19.689" y1="62.4444" x2="100.7587" y2="62.4444">
		<stop  offset="0" style="stop-color:#F21D1D"/>
		<stop  offset="1" style="stop-color:#A63737"/>
	</linearGradient>
	<path style="fill:url(#SVGID_00000107590694939730130180000002459888594147795118_);" d="M54.4,63.9l8.1-1.5L54.4,61
		c-11.1-2-19.7-10.7-21.7-21.7l-1.5-8l-1.5,8.1C27.8,50.3,19.1,59,8.1,61L0,62.4l8.1,1.5c11.1,2,19.7,10.7,21.7,21.7l1.5,8l1.5-8.1
		C34.7,74.6,43.3,65.9,54.4,63.9z"/>
</g>
</svg>
